D:\school\WTK\thesis\model\3dpredictsim\Results\debug_tmt\Pog_s1_tmt_bCst_d02_k800_kc1_t5_ig24_pas_v2_GRF.mot
nRows=17
nColumns=19

name D:\school\WTK\thesis\model\3dpredictsim\Results\debug_tmt\Pog_s1_tmt_bCst_d02_k800_kc1_t5_ig24_pas_v2_GRF.mot
datacolumns 19
datarows 17
range 0.0000000000 0.1714453808
endheader
time 	ground_force_vx	ground_force_vy	ground_force_vz	ground_force_px	ground_force_py	ground_force_pz	1_ground_force_vx	1_ground_force_vy	1_ground_force_vz	1_ground_force_px	1_ground_force_py	1_ground_force_pz	ground_torque_x	ground_torque_y	ground_torque_z	1_ground_torque_x	1_ground_torque_y	1_ground_torque_z
        0.0000000000	      -59.2206590722	       45.2527768146	        1.3530078469	        0.1540615411	        0.0000000000	        0.0694812987	       60.3516817806	      386.1250900336	        7.0645993404	       -0.3482888273	        0.0000000000	       -0.0552452136	        0.0000000000	        0.0000000000	        0.0000000000	        0.0000000000	        0.0000000000	        0.0000000000	
        0.0107153363	     -156.5226687588	      150.3157217258	        3.2037418517	        0.1705268962	        0.0000000000	        0.0713588651	       21.2804212670	      282.0626145341	       -4.0336209094	       -0.3239294977	        0.0000000000	       -0.0534376727	        0.0000000000	        0.0000000000	        0.0000000000	        0.0000000000	        0.0000000000	        0.0000000000	
        0.0214306726	      -95.4668179304	      477.3241545841	      -13.4330891498	        0.1883023882	        0.0000000000	        0.0698253850	        1.5804744314	      215.6168294254	      -17.2273997517	       -0.3060353036	        0.0000000000	       -0.0503219432	        0.0000000000	        0.0000000000	        0.0000000000	        0.0000000000	        0.0000000000	        0.0000000000	
        0.0321460089	     -154.3564790256	      921.7670508387	      -17.9574394416	        0.1991805431	        0.0000000000	        0.0668939762	        0.3454092069	      179.6103283803	      -26.5646900929	       -0.3061780100	        0.0000000000	       -0.0510716650	        0.0000000000	        0.0000000000	        0.0000000000	        0.0000000000	        0.0000000000	        0.0000000000	
        0.0428613452	     -170.0442743771	     1064.6787150507	      -19.1629118692	        0.2032994580	        0.0000000000	        0.0661095704	       -1.4292878025	      134.4978969920	      -29.6831821264	       -0.3058545877	        0.0000000000	       -0.0514681983	        0.0000000000	        0.0000000000	        0.0000000000	        0.0000000000	        0.0000000000	        0.0000000000	
        0.0535766815	     -155.1457784731	     1014.5926190564	      -18.6865961232	        0.2073671193	        0.0000000000	        0.0660864286	       -6.1876713236	       84.4994774348	      -22.0094402252	       -0.3058128837	        0.0000000000	       -0.0512412183	        0.0000000000	        0.0000000000	        0.0000000000	        0.0000000000	        0.0000000000	        0.0000000000	
        0.0642920178	     -136.6729140957	      932.8229863843	      -17.9362238773	        0.2124199826	        0.0000000000	        0.0663007129	       -4.8138790164	       28.1493762908	       -6.9753583465	       -0.3055360431	        0.0000000000	       -0.0503468481	        0.0000000000	        0.0000000000	        0.0000000000	        0.0000000000	        0.0000000000	        0.0000000000	
        0.0750073541	     -124.3563065151	      876.3160159718	      -19.8545097706	        0.2178135418	        0.0000000000	        0.0664490199	        0.1651079711	       -0.1683873902	       -0.0058334327	        0.0000000000	        0.0000000000	        0.0000000000	        0.0000000000	        0.0000000000	        0.0000000000	        0.0000000000	        0.0000000000	        0.0000000000	
        0.0857226904	     -112.6737466854	      838.6493732884	      -22.6214014405	        0.2230233006	        0.0000000000	        0.0665030416	        0.0003260353	       -0.0002667348	       -0.0000479041	        0.0000000000	        0.0000000000	        0.0000000000	        0.0000000000	        0.0000000000	        0.0000000000	        0.0000000000	        0.0000000000	        0.0000000000	
        0.0964380267	     -101.5207411033	      803.2192361163	      -23.8871901945	        0.2278874262	        0.0000000000	        0.0665199362	        0.0011059440	       -0.0007977162	       -0.0001913158	        0.0000000000	        0.0000000000	        0.0000000000	        0.0000000000	        0.0000000000	        0.0000000000	        0.0000000000	        0.0000000000	        0.0000000000	
        0.1071533630	      -90.8269772098	      769.4025195487	      -24.6137571846	        0.2321997596	        0.0000000000	        0.0665137793	        0.0213815249	       -0.0138699162	       -0.0041045430	        0.0000000000	        0.0000000000	        0.0000000000	        0.0000000000	        0.0000000000	        0.0000000000	        0.0000000000	        0.0000000000	        0.0000000000	
        0.1178686993	      -79.6440349327	      736.7133875057	      -25.0188246906	        0.2359286165	        0.0000000000	        0.0665261894	       -0.2381257490	        0.1417046653	        0.0473852698	        0.0000000000	        0.0000000000	        0.0000000000	        0.0000000000	        0.0000000000	        0.0000000000	        0.0000000000	        0.0000000000	        0.0000000000	
        0.1285840356	      -68.5946778522	      704.9608033648	      -25.1758761204	        0.2391603852	        0.0000000000	        0.0665663070	       -0.5600833416	        0.3118023587	        0.1135363588	        0.0000000000	        0.0000000000	        0.0000000000	        0.0000000000	        0.0000000000	        0.0000000000	        0.0000000000	        0.0000000000	        0.0000000000	
        0.1392993719	      -58.2701778638	      675.5855566954	      -25.1222134982	        0.2419055828	        0.0000000000	        0.0666477953	       -0.4181754690	        0.2183819246	        0.0829784315	        0.0000000000	        0.0000000000	        0.0000000000	        0.0000000000	        0.0000000000	        0.0000000000	        0.0000000000	        0.0000000000	        0.0000000000	
        0.1500147082	      -48.6092071726	      650.0454525456	      -24.8938703844	        0.2442132770	        0.0000000000	        0.0667667102	       -0.3072951740	        0.1517440220	        0.0599304382	        0.0000000000	        0.0000000000	        0.0000000000	        0.0000000000	        0.0000000000	        0.0000000000	        0.0000000000	        0.0000000000	        0.0000000000	
        0.1607300445	      -39.8172230907	      626.8198675357	      -24.1574656288	        0.2463404452	        0.0000000000	        0.0669025126	       -0.2567867441	        0.1208125815	        0.0484677350	        0.0000000000	        0.0000000000	        0.0000000000	        0.0000000000	        0.0000000000	        0.0000000000	        0.0000000000	        0.0000000000	        0.0000000000	
        0.1714453808	      -32.3590744159	      605.0638767085	      -22.8779309247	        0.2483853488	        0.0000000000	        0.0670351364	       -0.2487672868	        0.1122948999	        0.0445681420	        0.0000000000	        0.0000000000	        0.0000000000	        0.0000000000	        0.0000000000	        0.0000000000	        0.0000000000	        0.0000000000	        0.0000000000	
